<svg class="border shadow-md dark:border-slate-700" viewBox="0 0 1689.6 950.4" xmlns="http://www.w3.org/2000/svg" preserveAspectRatio="none" style="width: 1689.6px; height: 950.4px;"><rect class="bg" id="bg" x="0" y="0" width="1689.6" height="950.4" fill="#ffffff"/><g transform="rotate(0 844.8 475.2)"><path d="M -944.80 -65.04 S -535.00 -112.56&#10;            0.00 -65.04 462.40 -120.04&#10;            944.80 -65.04 1407.20 -112.56&#10;            1889.60 -65.04 2092.40 -112.56&#10;            2834.40 -65.04 h 110 V 1150.4 H -944.80 Z" fill="#FF1C1C" id="-1"/><path d="M -944.80 30.00 S -482.40 -17.52&#10;            0.00 30.00 462.40 -17.52&#10;            944.80 30.00 1407.20 -17.52&#10;            1889.60 30.00 2352.00 -17.52&#10;            2834.40 30.00 h 110 V 1150.4 H -944.80 Z" fill="#f31b1b" id="0"/><path d="M -944.80 125.04 S -650.00 49.04&#10;            0.00 125.04 267.80 77.52&#10;            944.80 125.04 1399.60 41.04&#10;            1889.60 125.04 2352.00 50.04&#10;            2834.40 125.04 h 110 V 1150.4 H -944.80 Z" fill="#e71a1a" id="1"/><path d="M -944.80 220.08 S -482.40 172.56&#10;            0.00 220.08 22.80 168.08&#10;            944.80 220.08 1288.60 132.08&#10;            1889.60 220.08 2352.00 172.56&#10;            2834.40 220.08 h 110 V 1150.4 H -944.80 Z" fill="#db1919" id="2"/><path d="M -944.80 315.12 S -892.00 267.60&#10;            0.00 315.12 315.80 246.12&#10;            944.80 315.12 1407.20 253.12&#10;            1889.60 315.12 2352.00 262.12&#10;            2834.40 315.12 h 110 V 1150.4 H -944.80 Z" fill="#cf1818" id="3"/><path d="M -944.80 410.16 S -802.00 362.64&#10;            0.00 410.16 462.40 362.64&#10;            944.80 410.16 1407.20 336.16&#10;            1889.60 410.16 2001.40 362.64&#10;            2834.40 410.16 h 110 V 1150.4 H -944.80 Z" fill="#c31717" id="4"/><path d="M -944.80 505.20 S -482.40 457.68&#10;            0.00 505.20 462.40 443.20&#10;            944.80 505.20 1299.60 450.20&#10;            1889.60 505.20 2007.40 447.20&#10;            2834.40 505.20 h 110 V 1150.4 H -944.80 Z" fill="#b71616" id="5"/><path d="M -944.80 600.24 S -482.40 552.72&#10;            0.00 600.24 255.80 552.72&#10;            944.80 600.24 1239.60 517.24&#10;            1889.60 600.24 2352.00 552.72&#10;            2834.40 600.24 h 110 V 1150.4 H -944.80 Z" fill="#ab1515" id="6"/><path d="M -944.80 695.28 S -692.00 638.28&#10;            0.00 695.28 102.80 603.28&#10;            944.80 695.28 1407.20 633.28&#10;            1889.60 695.28 2199.40 647.76&#10;            2834.40 695.28 h 110 V 1150.4 H -944.80 Z" fill="#9f1414" id="7"/><path d="M -944.80 790.32 S -482.40 742.80&#10;            0.00 790.32 185.80 739.32&#10;            944.80 790.32 1059.60 696.32&#10;            1889.60 790.32 2352.00 742.80&#10;            2834.40 790.32 h 110 V 1150.4 H -944.80 Z" fill="#931313" id="8"/><path d="M -944.80 885.36 S -482.40 837.84&#10;            0.00 885.36 231.80 837.84&#10;            944.80 885.36 936.60 837.84&#10;            1889.60 885.36 2352.00 837.84&#10;            2834.40 885.36 h 110 V 1150.4 H -944.80 Z" fill="#871212" id="9"/></g></svg>